<?xml version="1.0" encoding="UTF-8" standalone="no"?>
<!-- Generator: Adobe Illustrator 25.0.1, SVG Export Plug-In . SVG Version: 6.00 Build 0)  -->

<svg
   xmlns:dc="http://purl.org/dc/elements/1.1/"
   xmlns:cc="http://creativecommons.org/ns#"
   xmlns:rdf="http://www.w3.org/1999/02/22-rdf-syntax-ns#"
   xmlns:svg="http://www.w3.org/2000/svg"
   xmlns="http://www.w3.org/2000/svg"
   xmlns:sodipodi="http://sodipodi.sourceforge.net/DTD/sodipodi-0.dtd"
   xmlns:inkscape="http://www.inkscape.org/namespaces/inkscape"
   version="1.1"
   id="Laag_1"
   x="0px"
   y="0px"
   viewBox="0 0 1169.9 241.1"
   style="enable-background:new 0 0 1169.9 241.1;"
   xml:space="preserve"
   sodipodi:docname="Dat_logo.svg"
   inkscape:version="0.92.4 (5da689c313, 2019-01-14)"><metadata
   id="metadata979"><rdf:RDF><cc:Work
       rdf:about=""><dc:format>image/svg+xml</dc:format><dc:type
         rdf:resource="http://purl.org/dc/dcmitype/StillImage" /></cc:Work></rdf:RDF></metadata><defs
   id="defs977" /><sodipodi:namedview
   pagecolor="#ffffff"
   bordercolor="#666666"
   borderopacity="1"
   objecttolerance="10"
   gridtolerance="10"
   guidetolerance="10"
   inkscape:pageopacity="0"
   inkscape:pageshadow="2"
   inkscape:window-width="1920"
   inkscape:window-height="1001"
   id="namedview975"
   showgrid="false"
   inkscape:snap-page="true"
   inkscape:zoom="1.2163433"
   inkscape:cx="584.95001"
   inkscape:cy="120.55"
   inkscape:window-x="-9"
   inkscape:window-y="-9"
   inkscape:window-maximized="1"
   inkscape:current-layer="Laag_1" />
<path
   d="M1116.6,182.8l-4.8-1.8l53.4-144.7l4.8,1.8L1116.6,182.8z M1096.4,182.8l-4.8-1.7l15.9-43.6l-45-98.4l4.6-2.1l45.9,100.3  L1096.4,182.8z M1119.6,118.9l-36.2-79.6l4.6-2.1l31.2,68.5l25.9-69.3l4.8,1.8L1119.6,118.9z"
   id="path898" />
<path
   d="M724,150.3c-26.9,0-44.9-13.8-48.1-36.9c-0.9-6.3-1.1-13-1.1-21.1V2.5h5.1v89.8c0,7.9,0.2,14.4,1,20.4  c2.9,20.4,19,32.5,43.1,32.5s40.2-12.2,43.1-32.5c0.8-6,1-12.5,1-20.4c0-7.9-0.2-14.4-1-20.4c-2.9-20.4-19-32.5-43.1-32.5  c-2.9,0-5.7,0.2-8.3,0.5l-0.6-5c2.9-0.4,5.9-0.5,9-0.5c26.9,0,44.9,13.8,48.1,36.9c0.9,6.3,1.1,13,1.1,21.1c0,8.1-0.2,14.8-1.1,21.1  C768.9,136.5,750.9,150.3,724,150.3z M724,131.4c-21.8,0-28-12-29.4-22.1c-0.8-5.7-0.8-10.9-0.8-17V2.5h5.1v89.8  c0,5.9,0,10.9,0.8,16.3c1.7,12,9.7,17.8,24.4,17.8s22.7-5.8,24.4-17.7c0.8-5.4,0.8-10.4,0.8-16.3c0-5.9,0-10.9-0.8-16.3  c-1.7-12-9.7-17.8-24.4-17.8c-3,0-5.7,0.2-8.1,0.7l-1-5c2.8-0.6,5.8-0.8,9.1-0.8c21.8,0,28,12,29.4,22.1c0.8,5.7,0.8,10.9,0.8,17  c0,6.1,0,11.3-0.8,17C752,119.4,745.8,131.4,724,131.4z"
   id="path900" />
<path
   d="M601.2,150.3c-26.9,0-44.9-13.8-48.1-36.9l0,0c-0.9-6.3-1.1-13-1.1-21.1c0-8.1,0.2-14.8,1.1-21.1  c3.3-23.1,21.3-36.9,48.1-36.9s44.9,13.8,48.1,36.9c0.9,6.3,1.1,13,1.1,21.1c0,8.1-0.2,14.8-1.1,21.1  C646.1,136.5,628.1,150.3,601.2,150.3z M558.1,112.7c2.9,20.4,19,32.5,43.1,32.5c24.1,0,40.2-12.2,43.1-32.5c0.8-6,1-12.5,1-20.4  c0-7.9-0.2-14.4-1-20.4c-2.9-20.4-19-32.5-43.1-32.5S561,51.6,558.1,71.9c-0.8,6-1,12.5-1,20.4C557.1,100.2,557.3,106.7,558.1,112.7  z M601.2,131.4c-21.7,0-28-12-29.4-22.1c-0.8-5.7-0.8-11-0.8-17c0-6.1,0-11.3,0.8-17c1.4-10.1,7.7-22.1,29.4-22.1s28,12,29.4,22.1  c0.8,5.7,0.8,10.9,0.8,17c0,6.1,0,11.3-0.8,17C629.3,119.4,623,131.4,601.2,131.4z M601.2,58.3c-14.7,0-22.7,5.8-24.4,17.7  c-0.8,5.4-0.8,10.4-0.8,16.3c0,5.9,0,10.9,0.8,16.3l0,0c1.7,11.9,9.7,17.7,24.4,17.7s22.7-5.8,24.4-17.7c0.8-5.4,0.8-10.4,0.8-16.3  c0-5.9,0-10.9-0.8-16.3C624,64.1,616,58.3,601.2,58.3z"
   id="path902" />
<path
   d="M820.6,147.9h-5.1V37.1h5.1V147.9z M801.7,147.9h-5.1V37.1h5.1V147.9z"
   id="path904" />
<path
   d="M948.3,148h-5.1V37.1h5.1V148z M929.4,148h-5.1V37.1h5.1V148z"
   id="path906" />
<path
   d="M54.1,150.3H22.8C7,150.2,0,141.7,0,122.6V21.4h5.1v101.2c0,18.7,6.8,22.6,17.8,22.6h31.2c27.8,0,46.9-12.3,49.7-32.1  c0.8-5.6,1.5-29.5,1.5-38h0c0-8.9-0.7-32.5-1.5-38C100.9,17.4,81.9,5.1,54.1,5.1H40.9V0h13.1c30.5,0,51.5,14,54.7,36.4  c0.9,6.2,1.6,31.2,1.6,39.1h0c0,8.1-0.7,32.2-1.6,38.4C105.6,136.4,84.6,150.3,54.1,150.3z M26,131.4c-6.4-0.1-7.1-5-7.1-8.6V21.4  H24v101.4c0,3.5,0.6,3.5,2.1,3.6l28.1,0c25,0,29.6-8.4,30.9-17.4c0.8-5.2,1.3-27.5,1.3-33.8v-1.6c-0.1-7.8-0.6-27.4-1.3-32.2  C83.7,32.3,79.1,24,54.1,24H40.9v-5.1h13.2c22.7,0,33.8,6.7,36,21.7c0.9,5.7,1.4,29,1.4,34.5l0,2.5c-0.1,8.1-0.6,26.9-1.3,32  c-2.1,15-13.2,21.7-35.9,21.7L26,131.4z"
   id="path908" />
<path
   d="M353.3,150.3c-7.8,0-14.1-6.3-14.1-14.1c0-7.8,6.3-14.1,14.1-14.1c7.8,0,14.1,6.3,14.1,14.1  C367.4,144,361.1,150.3,353.3,150.3z M353.3,127.2c-5,0-9,4.1-9,9c0,5,4.1,9,9,9c5,0,9-4.1,9-9C362.4,131.2,358.3,127.2,353.3,127.2  z"
   id="path910" />
<path
   d="M528.6,148h-5.1V82c0-6.4-0.1-11.7-0.8-16.6c-2.3-16.3-15.3-26.1-34.7-26.1c-11.3,0-20.6,3.3-26.8,9.5l-1.8,1.8l-1.8-1.8  c-6.2-6.2-15.4-9.5-26.8-9.5c-19.4,0-32.3,9.8-34.7,26.1c-0.7,4.9-0.8,10.2-0.8,16.6v66h-5.1V82c0-6.6,0.1-12.1,0.9-17.3  c2.7-19.1,17.5-30.5,39.7-30.5c11.7,0,21.5,3.2,28.6,9.3c7.1-6.1,16.9-9.3,28.6-9.3c22.1,0,37,11.4,39.7,30.5  c0.7,5.2,0.9,10.7,0.9,17.3V148z M509.7,148h-5.1v-67c0-4,0-7.5-0.5-11.1c-1.1-7.8-6.3-11.6-16-11.6s-14.9,3.8-16,11.5  c-0.5,3.7-0.5,7.1-0.5,11.1v67h-5.1v-67c0-4.2,0-7.8,0.6-11.8c1-7.2,5.5-15.9,21-15.9s20,8.7,21.1,15.9c0.6,4,0.6,7.6,0.6,11.8V148z   M452.6,148h-5.1V79.8c0-4,0-7.5-0.5-11.1c-1.1-7.8-6.3-11.6-16-11.6s-14.9,3.8-16,11.5c-0.5,3.7-0.5,7.1-0.5,11.1V148h-5.1V79.8  c0-4.2,0-7.8,0.6-11.8c1-7.2,5.5-15.9,21-15.9S451,60.7,452,68c0.6,4,0.6,7.6,0.6,11.8V148z"
   id="path912" />
<path
   d="M179.4,150.6c-28.6,0-46-12.1-49.1-33.9c-1.7-10.4,0.3-19.3,5.6-25.6c5.8-6.8,15-10.2,27.3-10.2h25.1v5.1h-25.1  c-10.8,0-18.7,2.8-23.5,8.4c-4.4,5.1-5.9,12.6-4.5,21.5c1.9,13.5,11.1,29.6,44.1,29.6c24.1,0,40.2-12.2,43.1-32.5  c0.8-6,1-12.5,1-20.4s-0.2-14.4-1-20.4c-2.9-20.4-19-32.5-43.1-32.5c-11.8,0-21.8,1.4-32.5,4.5l-1.4-4.9c11.2-3.2,21.6-4.7,33.9-4.7  c26.9,0,44.9,13.8,48.1,36.9c0.9,6.3,1.1,13,1.1,21.1s-0.2,14.8-1.1,21.1C224.2,136.8,206.3,150.6,179.4,150.6z M176.3,131.7  c-9.7,0-17.1-2.2-21.9-6.7c-4.2-3.9-5-8.4-5.1-9.7c-1.1-4.2-0.5-8.4,1.7-11.4c1.5-2,4.4-4.3,10-4.3l27.4,0.1l0,5.1l-27.4-0.1  c-2.8,0-4.7,0.8-5.9,2.3c-1.5,2-1.4,5-0.8,7.2l0.1,0.6c0,0.5,1,12.8,24.9,11.7c14.9,0,22.8-5.8,24.5-17.7c0.8-5.4,0.8-10.4,0.8-16.3  s0-10.9-0.8-16.3c-1.7-12-9.7-17.8-24.4-17.8c-10.2,0-18.1,1.2-27,4.3l-1.6-4.8c9.5-3.2,17.8-4.5,28.7-4.5c21.8,0,28,12,29.4,22.1  c0.8,5.7,0.8,10.9,0.8,17s0,11.3-0.8,17c-1.4,10.1-7.7,22.1-29.4,22.1C178.4,131.7,177.3,131.7,176.3,131.7z"
   id="path914" />
<path
   d="M901.1,150.3c-26.9,0-44.9-13.8-48.1-36.9c-0.9-6.6-1.1-14.6-1.1-18.8V2.5h5.1v92.1c0,4.1,0.1,11.8,1,18.1  c2.9,20.4,19,32.5,43.1,32.5V150.3z"
   id="path916" />
<path
   d="M901.1,131.4c-21.8,0-28-12-29.4-22.1c-0.8-5.7-0.8-12-0.8-18l0-88.8h5.1l0,88.8c0,5.9,0,11.9,0.8,17.3  c1.7,12,9.7,17.8,24.4,17.8V131.4z"
   id="path918" />
<g
   id="g926">
	<polygon
   points="1004.8,37.1 1004.8,2.5 999.7,2.5 999.7,42.1 1039.9,42.1 1039.9,37.1  "
   id="polygon920" />
	<path
   d="M1030,150.3c-26.9,0-44.9-13.8-48.1-36.9c-0.9-6.6-1.1-14.6-1.1-18.8V2.5h5.1v92.1c0,4.1,0.1,11.8,1,18.1   c2.9,20.4,19,32.5,43.1,32.5V150.3z"
   id="path922" />
	<path
   d="M1039.9,59.1V54h-40.2l0,37.3c0,6,0,12.3,0.8,18c1.4,10.1,7.7,22.1,29.4,22.1v-5.1c-14.7,0-22.7-5.8-24.4-17.8   c-0.8-5.4-0.8-11.4-0.8-17.3l0-32.3H1039.9z"
   id="path924" />
</g>
<g
   id="g934">
	<polygon
   points="278.8,37.1 278.8,2.5 273.7,2.5 273.7,42.1 313.9,42.1 313.9,37.1  "
   id="polygon928" />
	<path
   d="M304,150.3c-26.9,0-44.9-13.8-48.1-36.9c-0.9-6.6-1.1-14.6-1.1-18.8V2.5h5.1v92.1c0,4.1,0.1,11.8,1,18.1   c2.9,20.4,19,32.5,43.1,32.5V150.3z"
   id="path930" />
	<path
   d="M313.9,59.1V54h-40.2l0,37.3c0,6,0,12.3,0.8,18c1.4,10.1,7.7,22.1,29.4,22.1v-5.1c-14.7,0-22.7-5.8-24.4-17.8   c-0.8-5.4-0.8-11.4-0.8-17.3l0-32.3H313.9z"
   id="path932" />
</g>

</svg>